<svg width="28" height="29" viewBox="0 0 28 29" fill="none" xmlns="http://www.w3.org/2000/svg">
<path d="M23.3338 3.87708H5.8338C3.90413 3.87708 2.3338 5.44741 2.3338 7.37708V21.3771C2.3338 23.3067 3.90413 24.8771 5.8338 24.8771H23.3338C24.6206 24.8771 25.6671 23.8306 25.6671 22.5437V6.21041C25.6671 4.92358 24.6206 3.87708 23.3338 3.87708ZM5.8338 22.5437C5.1898 22.5437 4.66713 22.0199 4.66713 21.3771V7.37708C4.66713 6.73424 5.1898 6.21041 5.8338 6.21041H23.3338V9.71041H16.3338C15.047 9.71041 14.0005 10.7569 14.0005 12.0437V16.7104C14.0005 17.9972 15.047 19.0437 16.3338 19.0437H23.335V22.5437H5.8338ZM23.3338 12.0437V16.7104H16.3338V12.0437H23.3338Z" fill="white"/>
</svg>
